<?xml version="1.0" encoding="UTF-8"?>
<svg version="1.1" xmlns="http://www.w3.org/2000/svg" width="64" height="64">
<path d="M0,0 L3,0 L3,1 L4,1 L4,2 L5,2 L5,3 L6,3 L6,4 L7,4 L7,5 L8,5 L8,6 L9,6 L9,7 L10,7 L10,8 L11,8 L11,9 L12,9 L12,10 L13,10 L13,13 L12,13 L12,14 L15,14 L15,15 L16,15 L16,16 L19,16 L19,23 L18,23 L18,24 L23,24 L23,23 L32,23 L32,24 L33,24 L33,28 L32,28 L32,34 L31,34 L31,37 L30,37 L30,38 L20,38 L20,37 L19,37 L19,36 L17,36 L17,29 L15,29 L15,30 L14,30 L14,31 L12,31 L12,32 L11,32 L11,33 L9,33 L9,34 L3,34 L3,36 L2,36 L2,37 L10,37 L10,38 L11,38 L11,39 L12,39 L12,43 L11,43 L11,44 L9,44 L9,46 L11,46 L11,45 L19,45 L19,46 L20,46 L20,47 L21,47 L21,53 L20,53 L20,54 L19,54 L19,55 L15,55 L15,58 L14,58 L14,62 L10,62 L10,61 L9,61 L9,59 L8,59 L8,53 L10,53 L10,50 L9,50 L9,49 L8,49 L8,46 L3,46 L3,45 L2,45 L2,44 L-1,44 L-1,40 L-3,40 L-3,38 L-4,38 L-4,37 L-5,37 L-5,36 L-6,36 L-6,32 L-4,32 L-4,31 L-7,31 L-7,30 L-8,30 L-8,31 L-9,31 L-9,32 L-11,32 L-11,33 L-19,33 L-19,32 L-21,32 L-21,31 L-22,31 L-22,29 L-23,29 L-23,27 L-24,27 L-24,26 L-25,26 L-25,24 L-24,24 L-24,23 L-23,23 L-23,22 L-22,22 L-22,21 L-16,21 L-16,22 L-15,22 L-15,23 L-14,23 L-14,19 L-13,19 L-13,17 L-12,17 L-12,16 L-11,16 L-11,15 L-10,15 L-10,13 L-9,13 L-9,12 L-8,12 L-8,11 L-7,11 L-7,10 L-11,10 L-11,9 L-12,9 L-12,3 L-11,3 L-11,2 L-8,2 L-8,3 L-7,3 L-7,4 L-6,4 L-6,5 L-5,5 L-5,7 L-4,7 L-4,5 L-3,5 L-3,4 L-2,4 L-2,3 L-1,3 L-1,1 L0,1 Z M-14,23 L-14,25 L-13,25 L-13,26 L-12,26 L-12,28 L-10,28 L-10,26 L-11,26 L-11,25 L-12,25 L-12,24 L-13,24 L-13,23 Z " fill="#B8B8B8" transform="translate(29,1)"/>
<path d="M0,0 L3,0 L3,1 L4,1 L4,2 L5,2 L5,3 L6,3 L6,4 L7,4 L7,5 L8,5 L8,6 L9,6 L9,7 L10,7 L10,8 L11,8 L11,9 L12,9 L12,10 L13,10 L13,13 L12,13 L12,14 L15,14 L15,15 L11,15 L11,14 L9,14 L9,13 L10,13 L10,12 L12,12 L12,11 L11,11 L11,10 L10,10 L10,9 L9,9 L9,8 L8,8 L8,7 L7,7 L7,6 L6,6 L6,5 L4,5 L4,3 L3,3 L3,2 L2,2 L2,1 L1,1 L1,3 L0,3 L0,4 L-1,4 L-1,5 L-2,5 L-2,7 L-3,7 L-3,8 L-4,8 L-4,9 L-5,9 L-5,11 L-6,11 L-6,12 L-7,12 L-7,13 L-8,13 L-8,14 L-9,14 L-9,16 L-10,16 L-10,17 L-11,17 L-11,18 L-12,18 L-12,20 L-13,20 L-13,22 L-12,22 L-12,23 L-11,23 L-11,24 L-10,24 L-10,25 L-9,25 L-9,27 L-8,27 L-8,28 L-7,28 L-7,29 L-4,29 L-4,30 L-1,30 L-1,32 L-3,32 L-3,33 L-5,33 L-5,35 L-4,35 L-4,37 L-5,37 L-5,36 L-6,36 L-6,32 L-4,32 L-4,31 L-7,31 L-7,30 L-8,30 L-8,31 L-9,31 L-9,32 L-11,32 L-11,33 L-19,33 L-19,32 L-21,32 L-21,31 L-22,31 L-22,29 L-23,29 L-23,27 L-24,27 L-24,26 L-25,26 L-25,24 L-24,24 L-24,23 L-23,23 L-23,22 L-22,22 L-22,21 L-16,21 L-16,22 L-15,22 L-15,23 L-14,23 L-14,19 L-13,19 L-13,17 L-12,17 L-12,16 L-11,16 L-11,15 L-10,15 L-10,13 L-9,13 L-9,12 L-8,12 L-8,11 L-7,11 L-7,10 L-11,10 L-11,9 L-12,9 L-12,3 L-11,3 L-11,2 L-8,2 L-8,3 L-7,3 L-7,4 L-6,4 L-6,5 L-5,5 L-5,7 L-4,7 L-4,5 L-3,5 L-3,4 L-2,4 L-2,3 L-1,3 L-1,1 L0,1 Z M-14,23 L-14,25 L-13,25 L-13,26 L-12,26 L-12,28 L-10,28 L-10,26 L-11,26 L-11,25 L-12,25 L-12,24 L-13,24 L-13,23 Z " fill="#6B6B6B" transform="translate(29,1)"/>
<path d="M0,0 L3,0 L3,7 L2,7 L2,8 L7,8 L7,7 L16,7 L16,8 L17,8 L17,12 L16,12 L16,18 L15,18 L15,21 L14,21 L14,22 L4,22 L4,21 L3,21 L3,20 L1,20 L1,13 L-1,13 L-1,14 L-2,14 L-2,15 L-4,15 L-4,16 L-5,16 L-5,17 L-7,17 L-7,18 L-13,18 L-13,20 L-14,20 L-14,21 L-6,21 L-6,22 L-15,22 L-15,19 L-14,19 L-14,16 L-7,16 L-7,15 L-5,15 L-5,14 L-4,14 L-4,8 L-3,8 L-3,7 L-1,7 L-1,10 L-2,10 L-2,12 L0,12 L0,10 L1,10 L1,6 L2,6 L2,1 L0,1 Z " fill="#EAEAEA" transform="translate(45,17)"/>
<path d="M0,0 L1,0 L1,11 L0,11 L0,13 L-4,13 L-4,14 L0,14 L0,25 L5,25 L5,26 L-1,26 L-1,25 L-4,25 L-4,24 L-6,24 L-6,26 L-5,26 L-5,28 L-8,28 L-8,27 L-9,27 L-9,26 L-10,26 L-10,24 L-11,24 L-11,23 L-12,23 L-12,22 L-13,22 L-13,21 L-14,21 L-14,19 L-13,19 L-13,17 L-12,17 L-12,16 L-11,16 L-11,15 L-10,15 L-10,13 L-9,13 L-9,12 L-8,12 L-8,11 L-7,11 L-7,10 L-6,10 L-6,8 L-5,8 L-5,7 L-4,7 L-4,6 L-3,6 L-3,4 L-2,4 L-2,3 L-1,3 L-1,2 L0,2 Z " fill="#F1F1F1" transform="translate(30,2)"/>
<path d="M0,0 L1,0 L1,1 L2,1 L2,5 L1,5 L1,6 L-1,6 L-1,8 L1,8 L1,7 L9,7 L9,8 L10,8 L10,9 L11,9 L11,15 L10,15 L10,16 L9,16 L9,17 L5,17 L5,20 L4,20 L4,24 L0,24 L0,23 L-1,23 L-1,21 L-2,21 L-2,15 L0,15 L0,12 L-1,12 L-1,11 L-2,11 L-2,8 L-7,8 L-7,7 L-8,7 L-8,6 L-6,6 L-6,5 L-7,5 L-7,2 L-3,2 L-3,4 L-2,4 L-2,2 L0,2 Z " fill="#CBCBCB" transform="translate(39,39)"/>
<path d="M0,0 L6,0 L6,1 L7,1 L7,2 L8,2 L8,4 L9,4 L9,5 L10,5 L10,8 L13,8 L13,11 L11,11 L11,12 L3,12 L3,11 L1,11 L1,10 L0,10 L0,8 L-1,8 L-1,6 L-2,6 L-2,5 L-3,5 L-3,3 L-2,3 L-2,2 L-1,2 L-1,1 L0,1 Z " fill="#CFCFCF" transform="translate(7,22)"/>
<path d="M0,0 L2,0 L2,1 L5,1 L5,2 L7,2 L7,5 L8,5 L8,6 L9,6 L9,5 L16,5 L16,6 L14,6 L14,7 L7,7 L7,10 L6,10 L6,13 L15,13 L15,15 L13,15 L13,17 L12,17 L12,15 L8,15 L8,18 L9,18 L9,19 L4,19 L4,15 L2,15 L2,13 L1,13 L1,10 L0,10 L0,8 L2,8 L2,7 L4,7 L4,5 L1,5 L1,2 L0,2 Z " fill="#C3C3C3" transform="translate(24,26)"/>
<path d="M0,0 L4,0 L4,1 L5,1 L5,3 L6,3 L6,4 L7,4 L7,5 L8,5 L8,8 L7,8 L7,9 L5,9 L5,10 L4,10 L4,11 L-5,11 L-5,9 L-6,9 L-6,7 L-5,7 L-5,6 L-4,6 L-4,5 L-3,5 L-3,4 L-2,4 L-2,2 L-1,2 L-1,1 L0,1 Z " fill="#9F9F9F" transform="translate(50,5)"/>
<path d="M0,0 L4,0 L4,11 L9,11 L9,12 L3,12 L3,11 L0,11 L0,10 L-2,10 L-2,12 L-3,12 L-3,10 L-4,10 L-4,9 L-3,9 L-3,7 L-4,7 L-4,8 L-5,8 L-5,9 L-6,9 L-6,7 L-5,7 L-5,5 L-4,5 L-4,3 L-3,3 L-3,1 L0,1 Z " fill="#F2F2F2" transform="translate(26,16)"/>
<path d="M0,0 L3,0 L3,7 L2,7 L2,8 L7,8 L7,9 L3,9 L3,10 L2,10 L2,19 L3,19 L3,20 L1,20 L1,13 L-1,13 L-1,14 L-2,14 L-2,15 L-4,15 L-4,16 L-5,16 L-5,17 L-7,17 L-7,18 L-13,18 L-13,20 L-14,20 L-14,21 L-6,21 L-6,22 L-15,22 L-15,19 L-14,19 L-14,16 L-7,16 L-7,15 L-5,15 L-5,14 L-4,14 L-4,8 L-3,8 L-3,7 L-1,7 L-1,10 L-2,10 L-2,12 L0,12 L0,10 L1,10 L1,6 L2,6 L2,1 L0,1 Z " fill="#6C6C6C" transform="translate(45,17)"/>
<path d="M0,0 L1,0 L1,9 L3,9 L3,8 L6,8 L6,5 L9,5 L9,6 L11,6 L11,5 L10,5 L10,4 L12,4 L12,5 L13,5 L13,6 L12,6 L12,7 L11,7 L11,8 L10,8 L10,14 L2,14 L2,15 L1,15 L1,14 L0,14 L0,11 L4,11 L4,10 L0,10 Z " fill="#AEAEAE" transform="translate(31,17)"/>
<path d="M0,0 L1,0 L1,1 L2,1 L2,7 L1,7 L1,8 L0,8 L0,9 L-4,9 L-4,12 L-5,12 L-5,16 L-9,16 L-9,15 L-10,15 L-10,13 L-11,13 L-11,7 L-9,7 L-9,4 L-8,4 L-8,6 L-7,6 L-7,7 L-4,7 L-4,8 L-1,8 L-1,7 L0,7 L0,6 L1,6 L1,2 L0,2 Z " fill="#6C6C6C" transform="translate(48,47)"/>
<path d="M0,0 L1,0 L1,2 L2,2 L2,3 L-1,3 L-1,5 L-2,5 L-2,7 L-3,7 L-3,9 L-4,9 L-4,11 L-3,11 L-3,10 L-2,10 L-2,9 L-1,9 L-1,11 L-2,11 L-2,12 L-1,12 L-1,14 L1,14 L1,16 L-2,16 L-2,15 L-3,15 L-3,14 L-4,14 L-4,12 L-5,12 L-5,11 L-6,11 L-6,10 L-7,10 L-7,9 L-8,9 L-8,7 L-7,7 L-7,5 L-6,5 L-6,4 L-5,4 L-5,3 L-4,3 L-4,1 L-2,1 L-2,2 L0,2 Z " fill="#E4E4E4" transform="translate(24,14)"/>
<path d="M0,0 L1,0 L1,1 L2,1 L2,3 L4,3 L4,4 L5,4 L5,5 L6,5 L6,6 L7,6 L7,7 L8,7 L8,8 L9,8 L9,9 L10,9 L10,10 L8,10 L8,11 L7,11 L7,12 L6,12 L6,10 L4,10 L4,11 L0,11 Z " fill="#D0D0D0" transform="translate(31,3)"/>
<path d="M0,0 L2,0 L2,6 L1,6 L1,8 L0,8 L0,7 L-2,7 L-2,9 L5,9 L5,10 L-5,10 L-5,9 L-6,9 L-6,8 L-4,8 L-4,6 L-5,6 L-5,2 L-3,2 L-3,1 L0,1 Z " fill="#979797" transform="translate(54,29)"/>
<path d="M0,0 L1,0 L1,1 L2,1 L2,5 L1,5 L1,6 L-1,6 L-1,8 L1,8 L1,9 L-1,9 L-1,11 L-2,11 L-2,8 L-7,8 L-7,7 L-8,7 L-8,6 L-6,6 L-6,5 L-7,5 L-7,2 L-3,2 L-3,4 L-2,4 L-2,2 L0,2 Z " fill="#9A9A9A" transform="translate(39,39)"/>
<path d="M0,0 L1,0 L1,2 L0,2 L0,3 L-1,3 L-1,4 L-2,4 L-2,6 L-3,6 L-3,8 L-2,8 L-2,9 L-1,9 L-1,10 L0,10 L0,11 L1,11 L1,13 L2,13 L2,14 L3,14 L3,15 L6,15 L6,16 L9,16 L9,18 L7,18 L7,19 L5,19 L5,21 L6,21 L6,23 L5,23 L5,22 L4,22 L4,18 L6,18 L6,17 L3,17 L3,16 L2,16 L2,17 L1,17 L1,15 L-2,15 L-2,14 L0,14 L0,12 L-1,12 L-1,11 L-2,11 L-2,10 L-3,10 L-3,9 L-4,9 L-4,5 L-3,5 L-3,3 L-2,3 L-2,2 L-1,2 L-1,1 L0,1 Z " fill="#6A6A6A" transform="translate(19,15)"/>
<path d="M0,0 L9,0 L9,1 L10,1 L10,5 L9,5 L9,11 L8,11 L8,14 L7,14 L7,10 L6,10 L6,9 L5,9 L5,3 L7,3 L7,2 L8,2 L8,1 L0,1 Z " fill="#878787" transform="translate(52,24)"/>
<path d="M0,0 L8,0 L8,2 L10,2 L10,7 L9,7 L9,11 L8,11 L8,13 L6,13 L6,11 L7,11 L7,8 L6,8 L6,7 L7,7 L7,5 L8,5 L8,3 L7,3 L7,4 L6,4 L6,2 L0,2 Z " fill="#C1C1C1" transform="translate(37,16)"/>
<path d="M0,0 L1,0 L1,1 L5,1 L5,0 L7,0 L7,2 L10,2 L10,3 L6,3 L6,2 L1,2 L1,3 L4,3 L4,4 L6,4 L6,5 L5,5 L5,6 L4,6 L4,7 L2,7 L2,4 L1,4 L1,14 L0,14 L0,3 L-4,3 L-4,2 L0,2 Z " fill="#D7D7D7" transform="translate(30,13)"/>
<path d="M0,0 L1,0 L1,1 L2,1 L2,2 L3,2 L3,5 L2,5 L2,6 L0,6 L0,7 L-1,7 L-1,8 L-10,8 L-10,6 L-9,6 L-9,7 L-3,7 L-3,6 L-4,6 L-4,5 L-5,5 L-5,3 L0,3 Z " fill="#9B9B9B" transform="translate(55,8)"/>
<path d="M0,0 L1,0 L1,1 L2,1 L2,0 L3,0 L3,1 L4,1 L4,3 L5,3 L5,1 L7,1 L7,2 L9,2 L9,5 L12,5 L12,6 L4,6 L4,5 L2,5 L2,4 L1,4 L1,2 L0,2 Z " fill="#A1A1A1" transform="translate(6,28)"/>
<path d="M0,0 L2,0 L2,5 L-5,5 L-5,6 L-6,6 L-6,5 L-7,5 L-7,2 L-3,2 L-3,1 L0,1 Z " fill="#898989" transform="translate(38,26)"/>
<path d="M0,0 L3,0 L3,1 L5,1 L5,2 L7,2 L7,4 L6,4 L6,5 L4,5 L4,6 L1,6 L1,5 L0,5 L0,3 L-1,3 L-1,1 L0,1 Z " fill="#A7A7A7" transform="translate(15,42)"/>
<path d="M0,0 L3,0 L3,1 L4,1 L4,2 L5,2 L5,5 L3,5 L3,6 L1,6 L1,7 L-1,7 L-1,1 L0,1 Z " fill="#ADADAD" transform="translate(18,3)"/>
<path d="M0,0 L9,0 L9,2 L7,2 L7,4 L6,4 L6,2 L2,2 L2,5 L3,5 L3,6 L1,6 L1,5 L-1,5 L-1,3 L1,3 L1,2 L0,2 Z " fill="#EFEFEF" transform="translate(30,39)"/>
<path d="M0,0 L1,0 L1,1 L2,1 L2,2 L1,2 L1,10 L2,10 L2,6 L3,6 L3,7 L4,7 L4,9 L5,9 L5,7 L6,7 L6,9 L7,9 L7,12 L6,12 L6,10 L4,10 L4,11 L0,11 Z " fill="#AAAAAA" transform="translate(31,3)"/>
<path d="M0,0 L5,0 L5,1 L6,1 L6,4 L5,4 L5,6 L2,6 L2,4 L1,4 L1,3 L0,3 Z " fill="#969696" transform="translate(29,53)"/>
<path d="M0,0 L5,0 L5,3 L4,3 L4,7 L2,7 L2,6 L1,6 L1,4 L0,4 Z " fill="#D7D7D7" transform="translate(38,55)"/>
<path d="M0,0 L1,0 L1,5 L2,5 L2,6 L3,6 L3,10 L-4,10 L-4,8 L-2,8 L-2,9 L-1,9 L-1,7 L0,7 Z " fill="#D0D0D0" transform="translate(56,28)"/>
<path d="M0,0 L2,0 L2,1 L5,1 L5,2 L6,2 L6,6 L4,6 L4,5 L1,5 L1,2 L0,2 Z " fill="#B9B9B9" transform="translate(24,26)"/>
<path d="M0,0 L1,0 L1,3 L2,3 L2,4 L3,4 L3,3 L10,3 L10,4 L8,4 L8,5 L1,5 L1,6 L0,6 L0,5 L-1,5 L-1,4 L0,4 Z " fill="#D5D5D5" transform="translate(30,28)"/>
<path d="M0,0 L4,0 L4,3 L3,3 L3,4 L-2,4 L-2,2 L-1,2 L-1,1 L0,1 Z " fill="#949494" transform="translate(46,40)"/>
<path d="M0,0 L4,0 L4,2 L5,2 L5,1 L6,1 L6,3 L5,3 L5,4 L4,4 L4,3 L2,3 L2,4 L3,4 L3,5 L1,5 L1,4 L-1,4 L-1,3 L0,3 L0,2 L1,2 L1,1 L0,1 Z " fill="#D1D1D1" transform="translate(39,18)"/>
<path d="M0,0 L1,0 L1,1 L2,1 L2,3 L3,3 L3,4 L4,4 L4,5 L-2,5 L-2,4 L-3,4 L-3,3 L-2,3 L-2,2 L-1,2 L-1,1 L0,1 Z " fill="#CACACA" transform="translate(48,10)"/>
<path d="M0,0 L1,0 L1,1 L3,1 L3,3 L5,3 L5,4 L6,4 L6,6 L3,6 L3,5 L2,5 L2,3 L0,3 Z " fill="#D5D5D5" transform="translate(38,48)"/>
<path d="M0,0 L5,0 L5,3 L2,3 L2,4 L0,4 Z " fill="#D4D4D4" transform="translate(32,22)"/>
<path d="M0,0 L3,0 L3,4 L0,4 L0,3 L-1,3 L-1,1 L0,1 Z " fill="#8C8C8C" transform="translate(17,35)"/>
</svg>
